<?xml version="1.0" encoding="utf-8"?>
<!-- Generator: Adobe Illustrator 20.1.0, SVG Export Plug-In . SVG Version: 6.00 Build 0)  -->
<!DOCTYPE svg PUBLIC "-//W3C//DTD SVG 1.1//EN" "http://www.w3.org/Graphics/SVG/1.1/DTD/svg11.dtd">
<svg version="1.1" id="content" xmlns="http://www.w3.org/2000/svg" xmlns:xlink="http://www.w3.org/1999/xlink" x="0px" y="0px"
	 width="354px" height="72px" viewBox="0 0 354 72" enable-background="new 0 0 354 72" xml:space="preserve">
<g>
	<defs>
		<rect id="SVGID_7_" width="354" height="72"/>
	</defs>
	<clipPath id="SVGID_2_">
		<use xlink:href="#SVGID_7_"  overflow="visible"/>
	</clipPath>
	<g clip-path="url(#SVGID_2_)">
		<rect fill="none" width="354" height="72"/>
		<g>
			<polygon fill="#212121" points="72,0 36,18 36,54 72,72 			"/>
			<rect x="0" y="0" transform="matrix(-1 1.346557e-10 -1.346557e-10 -1 72 72)" fill="none" width="72" height="72"/>
			<polygon fill="#EA80FC" points="0,0 72,36 0,72 			"/>
			<polygon fill="#7C4DFF" points="72,36 36,54 0,36 36,18 			"/>
		</g>
		<g>
			<path fill="#212121" d="M118.04,42.31h-8.67V60h-5.48V16.63h12.72c2.03,0.04,3.93,0.33,5.72,0.86s3.35,1.34,4.69,2.41
				s2.39,2.42,3.16,4.04c0.76,1.62,1.15,3.52,1.15,5.7c0,1.41-0.2,2.7-0.61,3.87c-0.41,1.17-0.97,2.23-1.68,3.19
				s-1.57,1.8-2.56,2.53c-0.99,0.73-2.08,1.36-3.28,1.88l9.2,18.53L132.37,60h-5.81L118.04,42.31z M109.37,37.78h7.39
				c1.23-0.02,2.39-0.21,3.48-0.58c1.09-0.37,2.05-0.9,2.87-1.59c0.82-0.69,1.47-1.54,1.95-2.55c0.48-1,0.71-2.16,0.71-3.47
				c0-1.39-0.23-2.61-0.69-3.65c-0.46-1.04-1.09-1.92-1.91-2.62c-0.81-0.7-1.78-1.24-2.9-1.59c-1.12-0.36-2.35-0.55-3.68-0.57h-7.24
				V37.78z"/>
			<path fill="#212121" d="M164.15,39.95h-18.11v15.37h21.12V60h-26.63V16.63h26.36v4.71h-20.85v13.94h18.11V39.95z"/>
			<path fill="#212121" d="M183.61,16.63l7.06,21.68l7.62-21.68h6.85V60h-5.36V42.69l0.45-18.11l-8.01,23.35h-3.16l-7.36-22.73
				l0.45,17.48V60h-5.36V16.63H183.61z"/>
			<path fill="#212121" d="M214.78,16.63h26.21v4.8h-10.4v33.81h10.4V60h-26.21v-4.77h10.16V21.43h-10.16V16.63z"/>
			<path fill="#212121" d="M264.21,33.64l9.35-17.01h6.49l-12.6,21.5L280.35,60h-6.43l-9.59-17.33L254.71,60h-6.52l12.93-21.86
				l-12.6-21.5h6.46L264.21,33.64z"/>
			<path fill="#212121" d="M311.55,39.95h-18.11v15.37h21.12V60h-26.63V16.63h26.36v4.71h-20.85v13.94h18.11V39.95z"/>
			<path fill="#212121" d="M338.35,42.31h-8.67V60h-5.48V16.63h12.72c2.03,0.04,3.93,0.33,5.72,0.86s3.35,1.34,4.69,2.41
				s2.39,2.42,3.16,4.04c0.76,1.62,1.15,3.52,1.15,5.7c0,1.41-0.2,2.7-0.61,3.87c-0.41,1.17-0.97,2.23-1.68,3.19
				s-1.57,1.8-2.56,2.53c-0.99,0.73-2.08,1.36-3.28,1.88l9.2,18.53L352.67,60h-5.81L338.35,42.31z M329.68,37.78h7.39
				c1.23-0.02,2.39-0.21,3.48-0.58c1.09-0.37,2.05-0.9,2.87-1.59c0.82-0.69,1.47-1.54,1.95-2.55c0.48-1,0.71-2.16,0.71-3.47
				c0-1.39-0.23-2.61-0.69-3.65c-0.46-1.04-1.09-1.92-1.91-2.62c-0.81-0.7-1.78-1.24-2.9-1.59c-1.12-0.36-2.35-0.55-3.68-0.57h-7.24
				V37.78z"/>
		</g>
	</g>
</g>
</svg>
